<svg width="128" height="155" viewBox="0 0 128 155" fill="none" xmlns="http://www.w3.org/2000/svg">
<path d="M10.68 117.28C10.12 118.64 9.08 119.32 7.56 119.32C6.6 119.32 5.75999 119 5.03999 118.36C4.23999 117.8 3.83999 117.08 3.83999 116.2C3.83999 115.72 3.96 115.24 4.2 114.76L39.12 36.04C39.44 35.24 40 34.6 40.8 34.12C41.52 33.64 42.32 33.4 43.2 33.4C44 33.4 44.8 33.6 45.6 34C46.32 34.48 46.88 35.16 47.28 36.04L82.08 114.76C82.32 115.24 82.44 115.68 82.44 116.08C82.44 117.04 82.08 117.8 81.36 118.36C80.56 119 79.68 119.32 78.72 119.32C77.2 119.32 76.16 118.64 75.6 117.28L43.08 43.72L10.68 117.28Z" fill="#3D57E0"/>
<path d="M53.68 117.28C53.12 118.64 52.08 119.32 50.56 119.32C49.6 119.32 48.76 119 48.04 118.36C47.24 117.8 46.84 117.08 46.84 116.2C46.84 115.72 46.96 115.24 47.2 114.76L82.12 36.04C82.44 35.24 83 34.6 83.8 34.12C84.52 33.64 85.32 33.4 86.2 33.4C87 33.4 87.8 33.6 88.6 34C89.32 34.48 89.88 35.16 90.28 36.04L125.08 114.76C125.32 115.24 125.44 115.68 125.44 116.08C125.44 117.04 125.08 117.8 124.36 118.36C123.56 119 122.68 119.32 121.72 119.32C120.2 119.32 119.16 118.64 118.6 117.28L86.08 43.72L53.68 117.28Z" fill="#4F69EF"/>
<path d="M12.544 142L12.528 132.416L7.84 140.512H7.44L2.752 132.448V142H1.952V130.8H2.64L7.648 139.456L12.656 130.8H13.328L13.344 142H12.544ZM20.2889 130.8H21.1049V142H20.2889V130.8ZM36.0476 136.448H36.8316V140.64C36.341 141.109 35.7436 141.467 35.0396 141.712C34.3463 141.957 33.6103 142.08 32.8316 142.08C31.7223 142.08 30.7196 141.835 29.8236 141.344C28.9383 140.853 28.2396 140.176 27.7276 139.312C27.2263 138.448 26.9756 137.477 26.9756 136.4C26.9756 135.323 27.2263 134.352 27.7276 133.488C28.2396 132.624 28.9383 131.947 29.8236 131.456C30.7196 130.965 31.7276 130.72 32.8476 130.72C33.669 130.72 34.421 130.853 35.1036 131.12C35.797 131.376 36.389 131.755 36.8796 132.256L36.3676 132.8C35.8983 132.331 35.3703 131.995 34.7836 131.792C34.2076 131.579 33.5676 131.472 32.8636 131.472C31.9036 131.472 31.0343 131.685 30.2556 132.112C29.4876 132.539 28.885 133.131 28.4476 133.888C28.0103 134.635 27.7916 135.472 27.7916 136.4C27.7916 137.317 28.0103 138.155 28.4476 138.912C28.8956 139.659 29.5036 140.251 30.2716 140.688C31.0396 141.115 31.9036 141.328 32.8636 141.328C34.1436 141.328 35.205 140.987 36.0476 140.304V136.448ZM51.2386 142L48.5666 138.256C48.172 138.309 47.8093 138.336 47.4786 138.336H44.2786V142H43.4626V130.8H47.4786C48.8866 130.8 49.9906 131.136 50.7906 131.808C51.5906 132.469 51.9906 133.392 51.9906 134.576C51.9906 135.461 51.7613 136.208 51.3026 136.816C50.8546 137.413 50.2093 137.835 49.3666 138.08L52.1666 142H51.2386ZM47.4786 137.616C48.6733 137.616 49.5853 137.355 50.2146 136.832C50.844 136.299 51.1586 135.547 51.1586 134.576C51.1586 133.605 50.844 132.859 50.2146 132.336C49.5853 131.803 48.6733 131.536 47.4786 131.536H44.2786V137.616H47.4786ZM64.9462 138.848H58.4502L57.0262 142H56.1462L61.2983 130.8H62.1143L67.2663 142H66.3863L64.9462 138.848ZM64.6423 138.16L61.6983 131.696L58.7703 138.16H64.6423ZM72.3395 130.8H73.1555V142H72.3395V130.8ZM89.2182 130.8V142H88.5462L80.9142 132.272V142H80.0982V130.8H80.7862L88.4022 140.528V130.8H89.2182ZM96.1695 130.8H96.9855V142H96.1695V130.8ZM108.312 142.08C106.894 142.08 105.79 141.669 105 140.848C104.222 140.027 103.832 138.827 103.832 137.248V130.8H104.648V137.216C104.648 138.592 104.963 139.621 105.592 140.304C106.222 140.987 107.134 141.328 108.328 141.328C109.512 141.328 110.419 140.987 111.048 140.304C111.678 139.621 111.992 138.592 111.992 137.216V130.8H112.808V137.248C112.808 138.827 112.414 140.027 111.624 140.848C110.835 141.669 109.731 142.08 108.312 142.08ZM122.6 142.08C121.778 142.08 120.994 141.941 120.248 141.664C119.512 141.376 118.936 141.008 118.52 140.56L118.888 139.952C119.282 140.368 119.81 140.709 120.472 140.976C121.144 141.232 121.848 141.36 122.584 141.36C123.65 141.36 124.456 141.157 125 140.752C125.544 140.347 125.816 139.819 125.816 139.168C125.816 138.667 125.672 138.267 125.384 137.968C125.096 137.669 124.738 137.44 124.312 137.28C123.885 137.12 123.309 136.955 122.584 136.784C121.762 136.581 121.101 136.384 120.6 136.192C120.109 136 119.688 135.707 119.336 135.312C118.994 134.907 118.824 134.368 118.824 133.696C118.824 133.152 118.968 132.656 119.256 132.208C119.544 131.749 119.981 131.387 120.568 131.12C121.165 130.853 121.906 130.72 122.792 130.72C123.41 130.72 124.018 130.811 124.616 130.992C125.213 131.173 125.73 131.419 126.168 131.728L125.864 132.384C125.416 132.075 124.92 131.84 124.376 131.68C123.842 131.52 123.314 131.44 122.792 131.44C121.757 131.44 120.973 131.648 120.44 132.064C119.906 132.48 119.64 133.019 119.64 133.68C119.64 134.181 119.784 134.581 120.072 134.88C120.36 135.179 120.717 135.408 121.144 135.568C121.57 135.728 122.152 135.899 122.888 136.08C123.709 136.283 124.365 136.48 124.856 136.672C125.346 136.864 125.762 137.157 126.104 137.552C126.456 137.936 126.632 138.459 126.632 139.12C126.632 139.664 126.482 140.16 126.184 140.608C125.896 141.056 125.448 141.413 124.84 141.68C124.232 141.947 123.485 142.08 122.6 142.08Z" fill="#E8E7EE"/>
</svg>
